<?xml version="1.0" standalone="no"?>
<!DOCTYPE svg PUBLIC "-//W3C//DTD SVG 20010904//EN"
 "http://www.w3.org/TR/2001/REC-SVG-20010904/DTD/svg10.dtd">
<svg version="1.0" xmlns="http://www.w3.org/2000/svg"
 width="512.000000pt" height="512.000000pt" viewBox="0 0 512.000000 512.000000"
 preserveAspectRatio="xMidYMid meet">

<g transform="translate(0.000000,512.000000) scale(0.100000,-0.100000)"
fill="#000000" stroke="none">
<path d="M278 3300 c-106 -18 -191 -89 -245 -206 -26 -54 -28 -69 -28 -174 1
-97 4 -124 24 -175 44 -109 155 -194 296 -226 97 -22 609 -17 940 10 149 12
369 25 490 28 216 6 223 5 339 -22 99 -23 125 -33 154 -59 39 -37 38 -45 -23
-121 -48 -59 -94 -147 -125 -234 -14 -42 -30 -82 -34 -89 -14 -22 -147 -15
-236 14 -45 14 -93 24 -108 22 -23 -3 -27 -8 -27 -35 0 -28 -3 -33 -23 -33
-42 0 -62 -18 -62 -55 0 -34 29 -63 49 -50 20 12 270 45 341 45 51 0 102 -8
162 -26 48 -14 102 -24 120 -22 29 3 33 7 36 35 3 28 -1 32 -30 41 -18 6 -62
13 -97 16 -35 3 -65 7 -67 9 -1 1 0 15 3 31 12 61 208 237 295 265 20 7 48 21
62 32 24 19 30 20 83 8 46 -11 66 -22 98 -55 23 -23 54 -44 70 -48 55 -11 259
-44 393 -62 72 -10 132 -22 132 -27 0 -16 -122 -147 -149 -161 -41 -21 -90
-26 -166 -17 -83 10 -105 2 -105 -39 0 -39 26 -45 127 -29 43 7 128 12 188 12
91 0 125 -5 200 -28 125 -39 142 -41 165 -20 28 25 25 43 -10 63 -16 9 -28 22
-26 27 7 21 -15 45 -42 45 -15 0 -64 -9 -110 -20 -154 -37 -159 -23 -21 67 51
34 103 71 114 81 17 17 43 20 198 27 l177 7 0 -29 c0 -31 28 -91 65 -142 14
-19 25 -45 25 -58 0 -23 -1 -23 -84 -17 -93 7 -131 2 -140 -21 -18 -49 29 -61
154 -39 125 21 193 21 320 -4 160 -31 184 -33 205 -19 21 16 23 66 4 78 -8 5
-24 9 -37 9 -19 0 -22 4 -17 20 8 25 -10 50 -37 50 -11 0 -56 -16 -101 -35
-137 -59 -159 -49 -162 78 -1 54 -7 93 -15 102 -16 20 -12 24 73 70 l67 37 33
-25 c50 -38 163 -92 265 -126 101 -34 150 -57 200 -94 l32 -24 -61 -7 c-71 -7
-79 -11 -79 -36 0 -31 37 -33 156 -10 118 23 157 21 263 -11 70 -21 126 -24
166 -9 21 8 26 16 23 37 -2 22 -10 29 -33 34 -16 4 -25 7 -19 8 5 0 19 7 29
15 19 14 19 15 1 35 -24 27 -41 26 -128 -4 -95 -33 -187 -34 -250 -2 -25 13
-104 66 -174 119 -71 53 -152 107 -181 122 -51 26 -75 46 -52 46 6 0 94 36
194 81 161 70 189 86 229 129 47 51 65 93 50 118 -6 8 -43 34 -84 57 -55 31
-87 58 -121 101 -38 50 -54 62 -100 76 -30 10 -81 31 -114 47 -58 29 -316 101
-363 101 -12 0 -25 -7 -29 -17 -6 -15 4 -65 22 -105 12 -29 -145 66 -197 119
-47 47 -48 48 -48 21 0 -16 -3 -28 -6 -28 -4 0 -33 25 -66 55 -32 30 -64 55
-70 55 -7 0 -8 -14 -4 -39 6 -37 5 -38 -22 -33 -15 2 -60 29 -100 60 -40 30
-75 52 -78 49 -3 -3 0 -21 7 -41 7 -20 10 -38 6 -42 -3 -4 -29 12 -58 35 -45
36 -111 62 -125 49 -2 -3 5 -16 16 -31 11 -14 20 -28 20 -31 0 -4 -31 10 -70
29 -40 20 -84 35 -105 35 l-36 0 16 -30 c21 -40 20 -41 -22 -26 -52 18 -111
28 -123 21 -7 -4 -6 -13 0 -26 13 -22 12 -22 -65 -4 -32 8 -61 12 -63 10 -2
-2 1 -12 7 -23 6 -12 11 -23 11 -26 0 -3 -34 -6 -75 -6 -41 0 -75 -2 -75 -5 0
-4 6 -18 14 -33 l14 -27 -84 3 c-46 2 -84 1 -84 -2 0 -2 5 -17 10 -32 l11 -27
-66 5 c-60 5 -80 -1 -55 -17 6 -3 10 -12 10 -19 0 -23 -97 -26 -195 -6 -128
26 -348 50 -457 50 -181 -1 -333 -29 -665 -124 -335 -96 -654 -154 -741 -135
-68 14 -133 58 -173 116 -31 43 -34 55 -34 118 0 61 4 75 30 114 57 84 157
109 245 60 89 -49 117 -144 65 -221 -46 -68 -146 -73 -195 -11 -38 49 -14 127
38 121 31 -4 43 -28 13 -28 -44 0 -53 -82 -11 -95 57 -18 118 27 127 94 7 48
-12 82 -60 111 -62 38 -141 19 -195 -46 -62 -75 -52 -158 27 -235 95 -92 230
-90 347 6 57 47 84 105 84 182 0 101 -24 158 -100 234 -91 92 -196 129 -312
109z"/>
</g>
</svg>
