<?xml version="1.0" standalone="no"?>
<!DOCTYPE svg PUBLIC "-//W3C//DTD SVG 20010904//EN"
 "http://www.w3.org/TR/2001/REC-SVG-20010904/DTD/svg10.dtd">
<svg version="1.0" xmlns="http://www.w3.org/2000/svg"
 width="220.000000pt" height="220.000000pt" viewBox="0 0 220.000000 220.000000"
 preserveAspectRatio="xMidYMid meet">

<g transform="translate(0.000000,220.000000) scale(0.100000,-0.100000)"
fill="#000000" stroke="none">
<path d="M160 1075 l0 -755 935 0 935 0 0 755 0 755 -935 0 -935 0 0 -755z
m1302 684 c33 -23 102 -56 152 -73 157 -54 242 -117 325 -242 84 -125 90 -186
26 -262 -69 -80 -215 -126 -377 -120 -77 3 -101 7 -117 22 -28 25 -26 40 3 32
95 -24 191 87 156 179 -17 44 -59 84 -102 96 -31 8 -46 6 -82 -10 -94 -41
-115 -152 -42 -224 18 -18 36 -45 39 -58 4 -14 19 -32 34 -39 43 -21 207 -25
283 -7 36 9 66 14 67 13 8 -8 -116 -88 -165 -107 -76 -30 -299 -40 -324 -16
-36 36 -38 -36 -3 -111 25 -55 42 -66 110 -77 38 -6 39 -8 20 -21 -11 -8 -33
-14 -50 -12 -25 2 -31 -1 -33 -19 -3 -19 -10 -23 -38 -23 -34 0 -35 2 -30 28
6 24 1 30 -44 54 -34 19 -56 40 -70 68 -23 45 -33 51 -28 18 5 -35 -80 -60
-205 -60 -54 0 -100 2 -103 5 -3 3 4 20 15 38 23 37 26 49 12 49 -5 0 -11 -9
-14 -19 -3 -11 -26 -35 -51 -52 -25 -18 -46 -38 -46 -44 0 -22 31 -54 60 -60
48 -10 37 -28 -13 -21 -30 5 -52 2 -73 -9 -36 -19 -48 -19 -63 -1 -9 11 -10
20 -1 36 9 17 7 26 -14 50 l-24 29 19 52 c24 63 18 76 -10 21 -17 -33 -24 -39
-46 -35 -34 7 -112 -14 -148 -39 -16 -12 -41 -46 -54 -75 -31 -67 -29 -156 4
-201 59 -79 150 -94 205 -33 34 39 38 89 7 117 -29 26 -54 8 -53 -40 1 -42
-16 -48 -40 -14 -38 54 2 133 67 131 47 -1 82 -27 101 -74 29 -71 13 -144 -43
-200 -85 -85 -218 -76 -325 22 -66 60 -108 139 -132 246 -23 104 -15 360 15
481 26 103 77 214 135 297 71 99 236 241 236 202 0 -11 18 -8 81 15 45 15 93
29 107 31 13 1 27 8 30 17 9 25 24 30 88 30 79 0 124 -9 124 -25 0 -14 32 -25
70 -24 l25 1 -25 8 c-29 9 -6 13 27 4 13 -4 20 -11 16 -17 -3 -6 -1 -7 6 -3
18 11 81 -13 81 -32 0 -26 15 -1 29 47 31 108 109 130 213 60z m-405 -45 c-3
-3 -12 -4 -19 -1 -8 3 -5 6 6 6 11 1 17 -2 13 -5z m525 -372 c57 -57 46 -162
-22 -197 -60 -31 -137 -10 -165 45 -20 38 -19 104 1 136 41 62 133 70 186 16z
m-218 -428 c10 -4 16 -18 16 -39 0 -48 32 -83 85 -91 25 -3 43 -10 40 -14 -3
-5 -20 -4 -38 1 -17 4 -44 11 -59 14 -19 4 -33 18 -52 57 -36 72 -34 88 8 72z
m-508 -150 c-4 -9 -2 -22 4 -29 9 -11 6 -12 -12 -8 -37 9 -50 23 -37 39 17 20
53 18 45 -2z m55 -62 c-7 -2 -18 1 -23 6 -8 8 -4 9 13 5 13 -4 18 -8 10 -11z"/>
<path d="M1448 1265 c-9 -19 -8 -29 6 -50 18 -28 28 -30 57 -15 22 12 26 59 7
78 -21 21 -57 14 -70 -13z m32 1 c0 -3 -4 -8 -10 -11 -5 -3 -10 -1 -10 4 0 6
5 11 10 11 6 0 10 -2 10 -4z"/>
</g>
</svg>
